<svg xmlns="http://www.w3.org/2000/svg" viewBox="0 0 1180 660" width="1180" height="660" role="img" font-family='"ABC Monument Grotesk Light","Helvetica Neue",Helvetica,Arial,sans-serif' preserveAspectRatio="xMidYMid meet">
  <style>
    .bg { fill: none; }
    .title { font: 600 22px "ABC Monument Grotesk Light","Helvetica Neue",Helvetica,Arial,sans-serif; fill: #121212; }
    .subtitle { font: 400 14px "ABC Monument Grotesk Light","Helvetica Neue",Helvetica,Arial,sans-serif; fill: #8a837b; }
    .axis-title { font: 500 14px "ABC Monument Grotesk Light","Helvetica Neue",Helvetica,Arial,sans-serif; fill: #43413d; }
    .tick { font: 400 13px "ABC Monument Grotesk Light","Helvetica Neue",Helvetica,Arial,sans-serif; fill: #8a837b; }
    .tick-strong { font: 500 14px "ABC Monument Grotesk Light","Helvetica Neue",Helvetica,Arial,sans-serif; fill: #43413d; }
    .value { font: 500 12px "ABC Monument Grotesk Light","Helvetica Neue",Helvetica,Arial,sans-serif; fill: #43413d; }
    .legend { font: 400 14px "ABC Monument Grotesk Light","Helvetica Neue",Helvetica,Arial,sans-serif; fill: #43413d; }
    .grid { stroke: rgba(17,17,17,0.08); stroke-width: 1; }
    .axis { stroke: rgba(17,17,17,0.18); stroke-width: 1.2; }</style>
  <rect class="bg" x="0" y="0" width="1180" height="660"/>
<text x="24.0" y="34.0" class="title" text-anchor="start">Latency vs. fidelity trade-off</text>
<text x="24.0" y="56.0" class="subtitle" text-anchor="start">Pareto-optimal corner: fast and faithful (top-left)</text>
<line class="grid" x1="78" y1="594.0" x2="1140" y2="594.0"/>
<text x="66.0" y="598.0" class="tick" text-anchor="end">0.28</text>
<line class="grid" x1="78" y1="490.0" x2="1140" y2="490.0"/>
<text x="66.0" y="494.0" class="tick" text-anchor="end">0.42</text>
<line class="grid" x1="78" y1="386.0" x2="1140" y2="386.0"/>
<text x="66.0" y="390.0" class="tick" text-anchor="end">0.57</text>
<line class="grid" x1="78" y1="282.0" x2="1140" y2="282.0"/>
<text x="66.0" y="286.0" class="tick" text-anchor="end">0.71</text>
<line class="grid" x1="78" y1="178.0" x2="1140" y2="178.0"/>
<text x="66.0" y="182.0" class="tick" text-anchor="end">0.86</text>
<line class="grid" x1="78" y1="74.0" x2="1140" y2="74.0"/>
<text x="66.0" y="78.0" class="tick" text-anchor="end">1.00</text>
<line class="grid" x1="78.0" y1="74" x2="78.0" y2="594"/>
<text x="78.0" y="618.0" class="tick" text-anchor="middle">10⁻⁵</text>
<line class="grid" x1="147.3" y1="74" x2="147.3" y2="594"/>
<text x="147.3" y="618.0" class="tick" text-anchor="middle">10⁻⁴</text>
<line class="grid" x1="459.9" y1="74" x2="459.9" y2="594"/>
<text x="459.9" y="618.0" class="tick" text-anchor="middle">10⁻³</text>
<line class="grid" x1="772.4" y1="74" x2="772.4" y2="594"/>
<text x="772.4" y="618.0" class="tick" text-anchor="middle">10⁻²</text>
<line class="grid" x1="1085.0" y1="74" x2="1085.0" y2="594"/>
<text x="1085.0" y="618.0" class="tick" text-anchor="middle">10⁻¹</text>
<line class="axis" x1="78" y1="594" x2="1140" y2="594"/>
<line class="axis" x1="78" y1="74" x2="78" y2="594"/>
<circle cx="862.4" cy="84.4" r="7.0" fill="#4a6670" opacity="0.9"/>
<text x="875.4" y="72.4" class="value" text-anchor="start">Keras GPU</text>
<circle cx="811.3" cy="84.0" r="7.0" fill="#4a6670" opacity="0.9"/>
<text x="811.3" y="108.0" class="value" text-anchor="middle">Keras CPU</text>
<circle cx="187.3" cy="114.0" r="7.0" fill="#4a6670" opacity="0.9"/>
<text x="174.3" y="118.0" class="value" text-anchor="end">TFLite Dyn</text>
<circle cx="171.8" cy="564.1" r="7.0" fill="#4a6670" opacity="0.9"/>
<text x="184.8" y="568.1" class="value" text-anchor="start">TFLite INT8</text>
<circle cx="344.6" cy="84.0" r="7.0" fill="#4a6670" opacity="0.9"/>
<text x="344.6" y="128.0" class="value" text-anchor="middle">ONNX</text>
<circle cx="482.8" cy="84.0" r="7.0" fill="#4a6670" opacity="0.9"/>
<text x="482.8" y="108.0" class="value" text-anchor="middle">TRT FP32</text>
<circle cx="386.0" cy="84.0" r="7.0" fill="#4a6670" opacity="0.9"/>
<text x="386.0" y="108.0" class="value" text-anchor="middle">TRT FP16</text>
<circle cx="327.4" cy="84.3" r="7.0" fill="#4a6670" opacity="0.9"/>
<text x="327.4" y="108.3" class="value" text-anchor="middle">TRT INT8</text>
<circle cx="198.5" cy="84.5" r="12.0" fill="none" stroke="#a7623f" stroke-width="2"/>
<circle cx="198.5" cy="84.5" r="7.0" fill="#a7623f" opacity="0.9"/>
<text x="211.5" y="72.5" class="value" text-anchor="start">TFLite FP16</text>
<text x="609.0" y="646.0" class="axis-title" text-anchor="middle">Seconds per sample (log scale)</text>
<text x="24" y="334.0" text-anchor="middle" class="axis-title" transform="rotate(-90 24 334.0)">ROC-AUC</text>
</svg>
